<?xml version="1.0" encoding="UTF-8" standalone="no"?>
<svg
   xmlns:dc="http://purl.org/dc/elements/1.1/"
   xmlns:cc="http://creativecommons.org/ns#"
   xmlns:rdf="http://www.w3.org/1999/02/22-rdf-syntax-ns#"
   xmlns:svg="http://www.w3.org/2000/svg"
   xmlns="http://www.w3.org/2000/svg"
   xmlns:sodipodi="http://sodipodi.sourceforge.net/DTD/sodipodi-0.dtd"
   xmlns:inkscape="http://www.inkscape.org/namespaces/inkscape"
   version="1.0"
   width="24"
   height="24"
   viewBox="0 0 240 240"
   preserveAspectRatio="xMidYMid meet"
   id="svg840"
   sodipodi:docname="streamlit_red.svg"
   inkscape:version="1.0.1 (c497b03c, 2020-09-10)">
  <metadata
     id="metadata846">
    <rdf:RDF>
      <cc:Work
         rdf:about="">
        <dc:format>image/svg+xml</dc:format>
        <dc:type
           rdf:resource="http://purl.org/dc/dcmitype/StillImage" />
        <dc:title></dc:title>
      </cc:Work>
    </rdf:RDF>
  </metadata>
  <defs
     id="defs844" />
  <sodipodi:namedview
     pagecolor="#ffffff"
     bordercolor="#666666"
     borderopacity="1"
     objecttolerance="10"
     gridtolerance="10"
     guidetolerance="10"
     inkscape:pageopacity="0"
     inkscape:pageshadow="2"
     inkscape:window-width="1440"
     inkscape:window-height="855"
     id="namedview842"
     showgrid="false"
     inkscape:zoom="20.72768"
     inkscape:cx="12"
     inkscape:cy="12"
     inkscape:window-x="0"
     inkscape:window-y="23"
     inkscape:window-maximized="0"
     inkscape:current-layer="svg840"
     inkscape:document-rotation="0" />
  <g
     id="layer101"
     fill="#000000"
     stroke="none"
     style="fill:#ff4b4b;fill-opacity:1"
     transform="matrix(0.0334327,0,0,0.0334327,-0.21286217,56.776376)">
    <path
       d="m 1345,3759 c -74,-26 -146,-78 -184,-133 -16,-22 -53,-104 -84,-181 C 809,2767 27,770 11,721 -5,673 22,619 68,606 c 29,-8 47,-2 175,62 78,39 313,162 522,272 209,111 643,340 965,510 2781,1465 4197,2214 4224,2233 17,12 11,17 -62,55 -80,42 -80,42 -2284,42 -2198,-1 -2203,-1 -2263,-21 z"
       id="path833"
       style="fill:#ff4b4b;fill-opacity:1" />
    <path
       d="M 5765,3391 C 5633,3321 5239,3112 4890,2928 4305,2619 2488,1660 2448,1639 c -19,-10 -20,-9 676,-1039 376,-558 394,-582 434,-594 22,-6 45,-5 73,3 53,16 52,14 678,946 288,429 531,789 541,800 31,36 1170,1744 1170,1755 0,5 -3,10 -7,10 -5,-1 -116,-58 -248,-129 z"
       id="path835"
       style="fill:#ff4b4b;fill-opacity:1" />
    <path
       d="m 6117,3348 c -59,-78 -1097,-1644 -1097,-1655 0,-6 100,-64 223,-128 122,-65 499,-264 837,-443 1038,-549 1025,-543 1077,-507 52,36 46,60 -145,545 -188,481 -592,1512 -737,1883 -133,339 -133,339 -158,305 z"
       id="path837"
       style="fill:#ff4b4b;fill-opacity:1" />
  </g>
</svg>
