<?xml version="1.0" encoding="UTF-8" standalone="no"?>
<svg
   xmlns:dc="http://purl.org/dc/elements/1.1/"
   xmlns:cc="http://creativecommons.org/ns#"
   xmlns:rdf="http://www.w3.org/1999/02/22-rdf-syntax-ns#"
   xmlns:svg="http://www.w3.org/2000/svg"
   xmlns="http://www.w3.org/2000/svg"
   xmlns:sodipodi="http://sodipodi.sourceforge.net/DTD/sodipodi-0.dtd"
   xmlns:inkscape="http://www.inkscape.org/namespaces/inkscape"
   version="1.1"
   id="Layer_1"
   x="0"
   y="0"
   viewBox="0 0 45.941421 24.1"
   xml:space="preserve"
   enable-background="new 0 0 117.9 52"
   sodipodi:docname="client-streamlit.svg"
   inkscape:version="1.0.1 (c497b03c, 2020-09-10)"
   width="45.941422"
   height="24.1"><metadata
     id="metadata58"><rdf:RDF><cc:Work
         rdf:about=""><dc:format>image/svg+xml</dc:format><dc:type
           rdf:resource="http://purl.org/dc/dcmitype/StillImage" /></cc:Work></rdf:RDF></metadata><defs
     id="defs56" /><sodipodi:namedview
     pagecolor="#ffffff"
     bordercolor="#666666"
     borderopacity="1"
     objecttolerance="10"
     gridtolerance="10"
     guidetolerance="10"
     inkscape:pageopacity="0"
     inkscape:pageshadow="2"
     inkscape:window-width="1312"
     inkscape:window-height="707"
     id="namedview54"
     showgrid="false"
     inkscape:zoom="7.1077184"
     inkscape:cx="22.891422"
     inkscape:cy="26"
     inkscape:window-x="77"
     inkscape:window-y="162"
     inkscape:window-maximized="0"
     inkscape:current-layer="home_r2_biobot" /><style
     id="style10">.st0,.st2{fill-rule:evenodd;clip-rule:evenodd}.st2{fill:#fff}</style><g
     id="Design_R1"
     transform="translate(-36.058579)"><g
       id="home_r2_biobot"
       transform="translate(-708,-3898)"><g
         id="_x30_4.-Our-Clients"
         transform="translate(-62,3087)"><g
           id="Group-57"
           transform="translate(770,811)"><path
             id="Fill-9"
             class="st0"
             d="M 82,1.8 C 82,1.9 81.9,2 81.9,2.1 79.7,8.1 77.5,14 75.3,20 L 68.3,8.7 68,8.4 C 72.3,6 76.5,3.6 80.8,1.3 80.9,1.2 81.1,1.1 81.2,1.1 81.3,1 81.4,1 81.5,1 81.6,1 81.7,1 81.9,1.2 82,1.3 82,1.6 82,1.8" /><g
             id="Group-15"
             transform="translate(52)"><defs
               id="defs17"><filter
                 id="Adobe_OpacityMaskFilter"
                 filterUnits="userSpaceOnUse"
                 x="0"
                 y="0"
                 width="23"
                 height="22"><feColorMatrix
                   values="1 0 0 0 0 0 1 0 0 0 0 0 1 0 0 0 0 0 1 0"
                   id="feColorMatrix14" /></filter></defs><mask
               maskUnits="userSpaceOnUse"
               x="0"
               y="0"
               width="23"
               height="22"
               id="mask-2_2_"><g
                 filter="url(#Adobe_OpacityMaskFilter)"
                 id="g20"><path
                   id="path-1_2_"
                   class="st2"
                   d="M 0,0 H 23 V 22 H 0 Z" /></g></mask><path
               id="Fill-13"
               d="m 23,21.4 c 0,0.1 -0.1,0.2 -0.1,0.3 -0.1,0.1 -0.2,0.2 -0.2,0.4 H 22.6 C 22.4,22 22.2,21.9 22.1,21.8 L 20.5,21 C 19.1,20.3 17.7,19.6 16.3,18.8 14,17.6 11.6,16.4 9.3,15.2 L 8,14.5 7.8,14.4 C 7.7,14.4 7.7,14.3 7.6,14.3 5.1,13 2.5,11.7 0,10.4 L 6.7,0.5 C 7,0.2 7.4,0 7.8,0 c 0.4,0 0.8,0.2 1,0.5 l 6.7,9.8 0.1,0.1 0.1,0.1 0.2,0.3 z"
               mask="url(#mask-2_2_)"
               fill-rule="evenodd"
               clip-rule="evenodd" /></g><path
             id="Fill-26"
             class="st0"
             d="m 74,23.4 -0.3,0.3 c -0.1,0 -0.1,0.1 -0.2,0.1 -0.1,0.1 -0.3,0.1 -0.4,0.2 -0.1,0 -0.2,0 -0.3,0.1 H 44.9 c -0.1,0 -0.2,0 -0.3,-0.1 -0.1,0 -0.3,-0.1 -0.4,-0.2 C 44,23.7 43.8,23.5 43.6,23.4 L 43.5,23.3 C 43.4,23.2 43.4,23.1 43.3,23 43.2,22.9 43.2,22.8 43.1,22.6 V 22.5 L 36.2,4.2 C 36.2,4.1 36.1,4 36.1,3.9 36,3.7 36.1,3.4 36.2,3.2 36.3,3 36.4,3 36.6,3 c 0.1,0 0.2,0 0.3,0.1 0.2,0.1 0.3,0.2 0.4,0.2 4.4,2.4 8.7,4.8 13.1,7.2 0.1,0 0.1,0.1 0.2,0.1 0.1,0 0.1,0.1 0.2,0.1 0.1,0 0.1,0.1 0.2,0.1 2.6,1.4 5.1,2.8 7.7,4.2 0.1,0 0.1,0.1 0.2,0.1 l 0.2,0.1 c 2.9,1.6 5.8,3.2 8.7,4.7 l 6,3.3 c -0.2,0 0,0.1 0.2,0.2" /></g></g></g></g></svg>
