<svg xmlns="http://www.w3.org/2000/svg" version="1.0" width="24" height="24" viewBox="0 0 240 240"><path d="M204.295 168.71c-1.973-2.609-36.676-54.964-36.676-55.332 0-.2 3.344-2.14 7.456-4.28 4.079-2.173 16.683-8.826 27.983-14.81 34.703-18.355 34.268-18.154 36.007-16.95 1.738 1.203 1.538 2.005-4.848 18.22-6.285 16.081-19.792 50.55-24.64 62.954-4.446 11.334-4.446 11.334-5.282 10.197zm-11.768 1.437c-4.413-2.34-17.586-9.328-29.254-15.48-19.558-10.33-80.305-42.392-81.643-43.094-.635-.335-.668-.301 22.6-34.737 12.572-18.655 13.173-19.458 14.51-19.859.736-.2 1.505-.167 2.441.1 1.772.535 1.739.468 22.668 31.628 9.628 14.342 17.752 26.378 18.087 26.746 1.036 1.203 39.116 58.306 39.116 58.674 0 .167-.1.334-.234.334-.167-.033-3.878-1.939-8.291-4.312zM44.754 182.45c-2.474-.87-4.881-2.608-6.151-4.447-.535-.735-1.772-3.477-2.809-6.051C26.834 149.285.69 82.52.154 80.882c-.534-1.605.369-3.41 1.907-3.845.97-.268 1.57-.067 5.85 2.072 2.608 1.304 10.465 5.417 17.452 9.094 6.988 3.711 21.497 11.367 32.263 17.05 92.976 48.98 140.317 74.02 141.22 74.656.568.401.367.568-2.073 1.839-2.675 1.404-2.675 1.404-76.36 1.404-73.486-.033-73.653-.033-75.659-.702z" fill="#ff4b4b"/></svg>